<svg width="50" height="50" viewBox="0 0 50 50" fill="none" xmlns="http://www.w3.org/2000/svg">
<g clip-path="url(#clip0_23_58261)">
<path d="M6.18359 31.0759C5.98257 31.1335 5.7698 31.1362 5.56736 31.0838C5.36492 31.0315 5.18018 30.9258 5.03232 30.778C4.88446 30.6301 4.77885 30.4454 4.72646 30.2429C4.67407 30.0405 4.6768 29.8277 4.73437 29.6267L6.40039 23.7927C4.78181 20.8232 4.2876 17.3699 5.00834 14.0656C5.72908 10.7613 7.61649 7.82748 10.3247 5.80176C13.0328 3.77603 16.3803 2.79414 19.7536 3.03604C23.1269 3.27793 26.3001 4.72742 28.6915 7.11883C31.0829 9.51024 32.5324 12.6834 32.7743 16.0567C33.0162 19.43 32.0343 22.7775 30.0085 25.4857C27.9828 28.1938 25.049 30.0812 21.7447 30.802C18.4404 31.5227 14.9871 31.0285 12.0176 29.4099L6.18359 31.0759Z" stroke="black" stroke-width="3" stroke-linecap="round" stroke-linejoin="round"/>
<path d="M17.9805 31.1013C18.6574 33.0231 19.7436 34.7749 21.164 36.2357C22.5844 37.6966 24.3051 38.8315 26.2071 39.5622C28.1091 40.2928 30.1471 40.6017 32.1802 40.4675C34.2132 40.3333 36.193 39.7592 37.9824 38.7849L43.8164 40.4509C44.0174 40.5085 44.2302 40.5112 44.4326 40.4588C44.6351 40.4064 44.8198 40.3008 44.9677 40.153C45.1155 40.0051 45.2211 39.8204 45.2735 39.6179C45.3259 39.4155 45.3232 39.2027 45.2656 39.0017L43.5996 33.1677C44.7363 31.083 45.3266 28.7445 45.3154 26.3701C45.3043 23.9957 44.6922 21.6627 43.5361 19.5888C42.3799 17.5148 40.7175 15.7674 38.7037 14.5094C36.69 13.2513 34.3904 12.5237 32.0195 12.3943" stroke="black" stroke-width="3" stroke-linecap="round" stroke-linejoin="round"/>
</g>
<defs>
<clipPath id="clip0_23_58261">
<rect width="50" height="50" fill="white"/>
</clipPath>
</defs>
</svg>
